<mxfile host="app.diagrams.net" modified="2021-06-14T19:03:38.027Z" agent="5.0 (Macintosh; Intel Mac OS X 10_15_6) AppleWebKit/605.1.15 (KHTML, like Gecko) Version/14.0.3 Safari/605.1.15" etag="EwqQyRyUp1GbXtTc6N1j" version="14.7.7" type="github">
  <diagram id="C-LghTA892ty6mnnDPfJ" name="Page-1">
    <mxGraphModel dx="2066" dy="1185" grid="1" gridSize="10" guides="1" tooltips="1" connect="1" arrows="1" fold="1" page="1" pageScale="1" pageWidth="850" pageHeight="1100" math="0" shadow="0">
      <root>
        <mxCell id="0" />
        <mxCell id="1" parent="0" />
        <mxCell id="du3BpN4dbQtCWblffIPo-1" value="" style="shape=image;html=1;verticalAlign=top;verticalLabelPosition=bottom;labelBackgroundColor=#ffffff;imageAspect=0;aspect=fixed;image=https://cdn1.iconfinder.com/data/icons/windows8_icons_iconpharm/26/qr_code.png" parent="1" vertex="1">
          <mxGeometry x="250" y="80" width="40" height="40" as="geometry" />
        </mxCell>
        <mxCell id="du3BpN4dbQtCWblffIPo-2" value="" style="html=1;verticalLabelPosition=bottom;labelBackgroundColor=#ffffff;verticalAlign=top;shadow=0;dashed=0;strokeWidth=1;shape=mxgraph.ios7.misc.iphone;strokeColor=#c0c0c0;" parent="1" vertex="1">
          <mxGeometry x="50" y="60" width="80" height="160" as="geometry" />
        </mxCell>
        <mxCell id="du3BpN4dbQtCWblffIPo-3" value="" style="endArrow=classic;html=1;entryX=1;entryY=0.475;entryDx=0;entryDy=0;entryPerimeter=0;exitX=0;exitY=0.5;exitDx=0;exitDy=0;" parent="1" source="du3BpN4dbQtCWblffIPo-1" target="du3BpN4dbQtCWblffIPo-2" edge="1">
          <mxGeometry width="50" height="50" relative="1" as="geometry">
            <mxPoint x="140" y="140" as="sourcePoint" />
            <mxPoint x="190" y="90" as="targetPoint" />
          </mxGeometry>
        </mxCell>
        <mxCell id="du3BpN4dbQtCWblffIPo-4" value="Golf Stop&lt;br&gt;" style="text;html=1;strokeColor=none;fillColor=none;align=center;verticalAlign=middle;whiteSpace=wrap;rounded=0;" parent="1" vertex="1">
          <mxGeometry x="235" y="50" width="70" height="20" as="geometry" />
        </mxCell>
        <mxCell id="du3BpN4dbQtCWblffIPo-6" value="User scans" style="text;html=1;strokeColor=none;fillColor=none;align=center;verticalAlign=middle;whiteSpace=wrap;rounded=0;" parent="1" vertex="1">
          <mxGeometry x="150" y="90" width="70" height="20" as="geometry" />
        </mxCell>
        <mxCell id="du3BpN4dbQtCWblffIPo-7" value="" style="rounded=0;whiteSpace=wrap;html=1;" parent="1" vertex="1">
          <mxGeometry x="305" y="190" width="535" height="550" as="geometry" />
        </mxCell>
        <mxCell id="du3BpN4dbQtCWblffIPo-8" value="Heroku Instance" style="text;html=1;strokeColor=none;fillColor=none;align=center;verticalAlign=middle;whiteSpace=wrap;rounded=0;" parent="1" vertex="1">
          <mxGeometry x="305" y="170" width="100" height="20" as="geometry" />
        </mxCell>
        <mxCell id="du3BpN4dbQtCWblffIPo-10" value="Node Server" style="text;html=1;strokeColor=none;fillColor=none;align=center;verticalAlign=middle;whiteSpace=wrap;rounded=0;" parent="1" vertex="1">
          <mxGeometry x="330" y="220" width="70" height="20" as="geometry" />
        </mxCell>
        <mxCell id="du3BpN4dbQtCWblffIPo-35" style="edgeStyle=orthogonalEdgeStyle;rounded=0;orthogonalLoop=1;jettySize=auto;html=1;exitX=0.5;exitY=0;exitDx=0;exitDy=0;entryX=0.999;entryY=0.455;entryDx=0;entryDy=0;entryPerimeter=0;startArrow=none;startFill=0;endArrow=classic;endFill=1;" parent="1" source="du3BpN4dbQtCWblffIPo-12" target="du3BpN4dbQtCWblffIPo-14" edge="1">
          <mxGeometry relative="1" as="geometry" />
        </mxCell>
        <mxCell id="du3BpN4dbQtCWblffIPo-12" value="" style="rounded=1;whiteSpace=wrap;html=1;" parent="1" vertex="1">
          <mxGeometry x="550" y="540" width="270" height="170" as="geometry" />
        </mxCell>
        <mxCell id="du3BpN4dbQtCWblffIPo-13" value="Workflow server" style="text;html=1;strokeColor=none;fillColor=none;align=center;verticalAlign=middle;whiteSpace=wrap;rounded=0;" parent="1" vertex="1">
          <mxGeometry x="560" y="510" width="110" height="20" as="geometry" />
        </mxCell>
        <mxCell id="du3BpN4dbQtCWblffIPo-14" value="" style="rounded=1;whiteSpace=wrap;html=1;" parent="1" vertex="1">
          <mxGeometry x="320" y="240" width="270" height="160" as="geometry" />
        </mxCell>
        <mxCell id="du3BpN4dbQtCWblffIPo-15" value="" style="rounded=1;whiteSpace=wrap;html=1;" parent="1" vertex="1">
          <mxGeometry x="24.380000000000003" y="830" width="60" height="60" as="geometry" />
        </mxCell>
        <mxCell id="du3BpN4dbQtCWblffIPo-16" value="" style="ellipse;whiteSpace=wrap;html=1;aspect=fixed;direction=south;" parent="1" vertex="1">
          <mxGeometry x="44.38" y="852.5" width="17.5" height="17.5" as="geometry" />
        </mxCell>
        <mxCell id="du3BpN4dbQtCWblffIPo-17" value="" style="rounded=1;whiteSpace=wrap;html=1;" parent="1" vertex="1">
          <mxGeometry x="124.38" y="830" width="60" height="60" as="geometry" />
        </mxCell>
        <mxCell id="du3BpN4dbQtCWblffIPo-18" value="" style="ellipse;whiteSpace=wrap;html=1;aspect=fixed;" parent="1" vertex="1">
          <mxGeometry x="145.63" y="850" width="20" height="20" as="geometry" />
        </mxCell>
        <mxCell id="du3BpN4dbQtCWblffIPo-19" value="Relays" style="text;html=1;strokeColor=none;fillColor=none;align=center;verticalAlign=middle;whiteSpace=wrap;rounded=0;" parent="1" vertex="1">
          <mxGeometry x="87.19" y="800" width="40" height="20" as="geometry" />
        </mxCell>
        <mxCell id="du3BpN4dbQtCWblffIPo-32" style="edgeStyle=orthogonalEdgeStyle;rounded=0;orthogonalLoop=1;jettySize=auto;html=1;exitX=1;exitY=0.75;exitDx=0;exitDy=0;entryX=0;entryY=0.75;entryDx=0;entryDy=0;startArrow=classic;startFill=1;" parent="1" source="du3BpN4dbQtCWblffIPo-20" target="du3BpN4dbQtCWblffIPo-12" edge="1">
          <mxGeometry relative="1" as="geometry" />
        </mxCell>
        <mxCell id="du3BpN4dbQtCWblffIPo-20" value="" style="rounded=0;whiteSpace=wrap;html=1;" parent="1" vertex="1">
          <mxGeometry x="24.38" y="500" width="165.62" height="80" as="geometry" />
        </mxCell>
        <mxCell id="du3BpN4dbQtCWblffIPo-21" value="Relay servers" style="text;html=1;strokeColor=none;fillColor=none;align=center;verticalAlign=middle;whiteSpace=wrap;rounded=0;" parent="1" vertex="1">
          <mxGeometry x="20" y="480" width="91.25" height="20" as="geometry" />
        </mxCell>
        <mxCell id="du3BpN4dbQtCWblffIPo-23" value="" style="curved=1;endArrow=classic;html=1;entryX=0;entryY=0.5;entryDx=0;entryDy=0;exitX=0.517;exitY=1.018;exitDx=0;exitDy=0;exitPerimeter=0;startArrow=classic;startFill=1;" parent="1" source="du3BpN4dbQtCWblffIPo-2" target="du3BpN4dbQtCWblffIPo-14" edge="1">
          <mxGeometry width="50" height="50" relative="1" as="geometry">
            <mxPoint x="140" y="320" as="sourcePoint" />
            <mxPoint x="190" y="270" as="targetPoint" />
            <Array as="points">
              <mxPoint x="70" y="270" />
              <mxPoint x="60" y="340" />
              <mxPoint x="150" y="320" />
            </Array>
          </mxGeometry>
        </mxCell>
        <mxCell id="du3BpN4dbQtCWblffIPo-24" value="After user scans qr, it sends a HTTP request to the Node server which initiates the process of polling for closest relays" style="text;html=1;strokeColor=none;fillColor=none;align=center;verticalAlign=middle;whiteSpace=wrap;rounded=0;" parent="1" vertex="1">
          <mxGeometry x="345" y="240" width="220" height="70" as="geometry" />
        </mxCell>
        <mxCell id="du3BpN4dbQtCWblffIPo-25" value="" style="endArrow=classic;startArrow=classic;html=1;exitX=0.5;exitY=0;exitDx=0;exitDy=0;" parent="1" source="du3BpN4dbQtCWblffIPo-15" edge="1">
          <mxGeometry width="50" height="50" relative="1" as="geometry">
            <mxPoint x="63.75" y="800" as="sourcePoint" />
            <mxPoint x="60" y="584" as="targetPoint" />
          </mxGeometry>
        </mxCell>
        <mxCell id="du3BpN4dbQtCWblffIPo-26" value="" style="endArrow=classic;startArrow=classic;html=1;entryX=0.802;entryY=1.046;entryDx=0;entryDy=0;exitX=0.5;exitY=0;exitDx=0;exitDy=0;entryPerimeter=0;" parent="1" source="du3BpN4dbQtCWblffIPo-17" target="du3BpN4dbQtCWblffIPo-20" edge="1">
          <mxGeometry width="50" height="50" relative="1" as="geometry">
            <mxPoint x="198.75" y="800" as="sourcePoint" />
            <mxPoint x="248.75" y="750" as="targetPoint" />
          </mxGeometry>
        </mxCell>
        <mxCell id="du3BpN4dbQtCWblffIPo-27" value="" style="curved=1;endArrow=classic;html=1;startArrow=classic;startFill=1;entryX=0;entryY=0.75;entryDx=0;entryDy=0;exitX=0.646;exitY=-0.006;exitDx=0;exitDy=0;exitPerimeter=0;" parent="1" source="du3BpN4dbQtCWblffIPo-20" target="du3BpN4dbQtCWblffIPo-14" edge="1">
          <mxGeometry width="50" height="50" relative="1" as="geometry">
            <mxPoint x="145.63" y="480" as="sourcePoint" />
            <mxPoint x="195.63" y="430" as="targetPoint" />
            <Array as="points">
              <mxPoint x="150" y="470" />
              <mxPoint x="180" y="440" />
            </Array>
          </mxGeometry>
        </mxCell>
        <mxCell id="du3BpN4dbQtCWblffIPo-28" value="retrieves location of all relays" style="text;html=1;strokeColor=none;fillColor=none;align=center;verticalAlign=middle;whiteSpace=wrap;rounded=0;" parent="1" vertex="1">
          <mxGeometry x="140" y="375" width="100" height="60" as="geometry" />
        </mxCell>
        <mxCell id="du3BpN4dbQtCWblffIPo-31" value="Once the workflow is running, workflow receives data from the Relays" style="text;html=1;strokeColor=none;fillColor=none;align=center;verticalAlign=middle;whiteSpace=wrap;rounded=0;" parent="1" vertex="1">
          <mxGeometry x="370" y="600" width="140" height="45" as="geometry" />
        </mxCell>
        <mxCell id="du3BpN4dbQtCWblffIPo-33" value="Based on the inputs from relay, the state of the process is sent to the Node server, which then updates the state on the user&#39;s device&amp;nbsp;" style="text;html=1;strokeColor=none;fillColor=none;align=center;verticalAlign=middle;whiteSpace=wrap;rounded=0;" parent="1" vertex="1">
          <mxGeometry x="575" y="580" width="220" height="80" as="geometry" />
        </mxCell>
        <mxCell id="du3BpN4dbQtCWblffIPo-36" value="API request &amp;nbsp;to Node server based on the state of the workflow" style="text;html=1;strokeColor=none;fillColor=none;align=center;verticalAlign=middle;whiteSpace=wrap;rounded=0;" parent="1" vertex="1">
          <mxGeometry x="680" y="330" width="160" height="90" as="geometry" />
        </mxCell>
        <mxCell id="du3BpN4dbQtCWblffIPo-37" value="The Node server also has the job of updating the user&#39;s website based on the input it gets from workflow" style="text;html=1;strokeColor=none;fillColor=none;align=center;verticalAlign=middle;whiteSpace=wrap;rounded=0;" parent="1" vertex="1">
          <mxGeometry x="372.5" y="350" width="165" height="20" as="geometry" />
        </mxCell>
        <mxCell id="du3BpN4dbQtCWblffIPo-38" value="&lt;b&gt;&lt;font style=&quot;font-size: 18px&quot;&gt;Simplified system architecture for Relay Golf Assist&lt;/font&gt;&lt;/b&gt;" style="text;html=1;strokeColor=none;fillColor=none;align=center;verticalAlign=middle;whiteSpace=wrap;rounded=0;" parent="1" vertex="1">
          <mxGeometry x="360" y="60" width="480" height="50" as="geometry" />
        </mxCell>
      </root>
    </mxGraphModel>
  </diagram>
</mxfile>
